<svg width="16" height="15" viewBox="0 0 16 15" fill="none" xmlns="http://www.w3.org/2000/svg">
<path fill-rule="evenodd" clip-rule="evenodd" d="M0.749998 15C1.16421 15 1.5 14.6642 1.5 14.25V2.25C1.5 1.83579 1.16421 1.5 0.75 1.5C0.335786 1.5 -1.82914e-08 1.83579 0 2.25V14.25C1.82913e-08 14.6642 0.335786 15 0.749998 15Z" fill="white"/>
<path fill-rule="evenodd" clip-rule="evenodd" d="M4.25 15C4.66421 15 5 14.6642 5 14.25V5.25C5 4.83579 4.66421 4.5 4.25 4.5C3.83579 4.5 3.5 4.83579 3.5 5.25V14.25C3.5 14.6642 3.83579 15 4.25 15Z" fill="white"/>
<path fill-rule="evenodd" clip-rule="evenodd" d="M8 15C8.41421 15 8.75 14.6642 8.75 14.25V11.25C8.75 10.8358 8.41421 10.5 8 10.5C7.58579 10.5 7.25 10.8358 7.25 11.25V14.25C7.25 14.6642 7.58579 15 8 15Z" fill="white"/>
<path fill-rule="evenodd" clip-rule="evenodd" d="M11.75 15C11.3358 15 11 14.6642 11 14.25L11 0.747925C11 0.333712 11.3358 -0.00207518 11.75 -0.0020752C12.1642 -0.00207521 12.5 0.333712 12.5 0.747925L12.5 14.25C12.5 14.6642 12.1642 15 11.75 15Z" fill="white"/>
<path fill-rule="evenodd" clip-rule="evenodd" d="M15.25 15C14.8358 15 14.5 14.6642 14.5 14.25V8.75C14.5 8.33579 14.8358 8 15.25 8C15.6642 8 16 8.33579 16 8.75V14.25C16 14.6642 15.6642 15 15.25 15Z" fill="white"/>
</svg>
